<svg xmlns="http://www.w3.org/2000/svg" viewBox="0 0 24 24" width="80" height="80">
  <defs>
    <linearGradient id="walletGradient" x1="0%" y1="0%" x2="100%" y2="100%">
      <stop offset="0%" stopColor="var(--primary-color, #7C3AED)" />
      <stop offset="100%" stopColor="var(--secondary-color, #5B21B6)" />
    </linearGradient>
    <filter id="shadow" x="-20%" y="-20%" width="140%" height="140%">
      <feDropShadow dx="0" dy="2" stdDeviation="2" floodColor="#000" floodOpacity="0.3" />
    </filter>
  </defs>
  <path d="M20 4H4C2.89543 4 2 4.89543 2 6V18C2 19.1046 2.89543 20 4 20H20C21.1046 20 22 19.1046 22 18V6C22 4.89543 21.1046 4 20 4Z" fill="url(#walletGradient)" filter="url(#shadow)" />
  <path d="M20 7H17C15.8954 7 15 7.89543 15 9V15C15 16.1046 15.8954 17 17 17H20C21.1046 17 22 16.1046 22 15V9C22 7.89543 21.1046 7 20 7Z" fill="var(--secondary-color, #5B21B6)" />
  <circle cx="18.5" cy="12" r="1.5" fill="var(--detail-color, #F9FAFB)" />
  <path d="M2 8H14M2 12H12" stroke="var(--detail-color, #F9FAFB)" strokeWidth="0.75" strokeLinecap="round" />
  <path d="M6 4V2M10 4V2M14 4V2" stroke="var(--detail-color, #F9FAFB)" strokeWidth="0.5" strokeLinecap="round" />
</svg>
